<?xml version="1.0" encoding="UTF-8" standalone="no"?><!DOCTYPE svg PUBLIC "-//W3C//DTD SVG 1.1//EN" "http://www.w3.org/Graphics/SVG/1.1/DTD/svg11.dtd"><svg width="100%" height="100%" viewBox="0 0 400 212" version="1.1" xmlns="http://www.w3.org/2000/svg" xmlns:xlink="http://www.w3.org/1999/xlink" xml:space="preserve" xmlns:serif="http://www.serif.com/" style="fill-rule:evenodd;clip-rule:evenodd;stroke-linejoin:round;stroke-miterlimit:1.41421;"><path d="M119.384,183.191l0,0.927c0,0.853 -0.148,0.928 -1.52,0.928l-1.52,0l0.148,10.862c0.111,9.603 0.185,10.975 0.779,12.05c1.853,3.374 7.452,2.669 9.305,-1.15c0.52,-1.112 0.593,-2.817 0.593,-11.53l0,-10.232l-1.297,0c-1.149,0 -1.297,-0.112 -1.297,-0.928l0,-0.927l7.414,0l0,0.927c0,0.816 -0.148,0.928 -1.297,0.928l-1.297,0l0,10.529c0,6.563 -0.15,10.937 -0.408,11.604c-0.556,1.483 -2.114,3.04 -3.856,3.856c-1.78,0.816 -5.524,0.889 -7.935,0.148c-0.889,-0.296 -2.187,-1.037 -2.855,-1.705c-2.15,-2.114 -2.373,-3.374 -2.373,-14.496l0,-9.936l-1.112,0c-0.927,0 -1.112,-0.15 -1.112,-0.928l0,-0.927l9.64,0Zm167.804,27.325c3.523,-1.78 5.191,-4.782 4.895,-8.713c-0.26,-3.188 -1.78,-4.671 -6.896,-6.748c-7.193,-2.892 -8.12,-3.521 -8.453,-5.597c-0.446,-2.67 2.484,-5.155 6.042,-5.155c2.744,0 3.931,1.149 5.228,5.005c0.816,2.374 1.15,2.967 1.743,2.967c0.704,0 0.741,-0.26 0.741,-4.079l0,-4.041l-1.853,-0.741c-2.559,-0.964 -7.527,-1.039 -9.9,-0.111c-4.152,1.593 -6.155,6.265 -4.412,10.159c0.927,1.964 2.967,3.448 6.823,4.93c5.784,2.188 7.304,3.559 7.304,6.636c0,2.819 -2.67,4.858 -6.34,4.858c-1.706,0 -2.04,-0.148 -3.152,-1.335c-0.927,-0.964 -1.558,-2.224 -2.262,-4.635c-0.889,-2.892 -1.112,-3.3 -1.853,-3.3c-0.853,0 -0.853,0.075 -0.853,4.45c0,4.189 0.037,4.449 0.853,4.857c3.781,2.039 9.009,2.299 12.345,0.593Zm64.29,-27.325l0,0.891c0,0.814 -0.186,0.926 -1.446,1.037l-1.409,0.112l2.409,5.116c1.336,2.78 2.522,5.079 2.671,5.079c0.221,0 4.597,-8.119 5.487,-10.084c0.074,-0.186 -0.296,-0.296 -0.816,-0.296c-0.779,0 -0.964,-0.186 -0.964,-0.928c0,-0.927 0.037,-0.927 3.337,-0.927c3.3,0 3.336,0 3.336,0.891c0,0.778 -0.185,0.926 -1.335,1.037c-1.334,0.112 -1.37,0.148 -4.818,6.6l-3.448,6.488l-0.038,5.672l0,5.636l1.668,0c1.41,0 1.668,0.111 1.668,0.741c0,0.706 -0.258,0.742 -5.561,0.742c-5.301,0 -5.561,-0.036 -5.561,-0.742c0,-0.63 0.26,-0.741 1.669,-0.741l1.668,0l0,-11.123l-3.225,-6.673l-3.19,-6.673l-1.445,0c-1.261,0 -1.409,-0.112 -1.409,-0.928l0,-0.927l10.752,0Zm-15.572,0l0,4.449c0,4.375 0,4.45 -0.815,4.45c-0.743,0 -0.928,-0.334 -1.484,-2.632c-0.927,-3.783 -1.408,-4.412 -3.448,-4.412l-1.668,0l0,24.469l1.483,0c1.224,0 1.484,0.111 1.484,0.741c0,0.706 -0.26,0.742 -5.191,0.742c-4.932,0 -5.191,-0.036 -5.191,-0.742c0,-0.63 0.259,-0.741 1.483,-0.741l1.483,0l0,-24.469l-1.668,0c-2.04,0 -2.522,0.629 -3.448,4.412c-0.556,2.298 -0.742,2.632 -1.447,2.632c-0.852,0 -0.852,-0.075 -0.852,-4.45l0,-4.449l19.279,0Zm-30.922,0c4.599,0 4.635,0 4.524,0.853c-0.074,0.631 -0.408,0.852 -1.334,0.927l-1.187,0.111l0.075,12.124l0.11,12.124l1.224,0.11c0.89,0.075 1.187,0.298 1.187,0.854c0,0.668 -0.297,0.704 -4.635,0.704c-4.376,0 -4.634,-0.036 -4.634,-0.742c0,-0.593 0.258,-0.741 1.112,-0.741l1.112,0l0,-24.469l-1.112,0c-0.927,0 -1.112,-0.15 -1.112,-0.928l0,-0.927l4.67,0Zm-58.43,26.324l0,-24.433l-1.187,-0.111c-0.964,-0.075 -1.26,-0.296 -1.335,-0.964l-0.148,-0.889l7.935,0.148c7.267,0.11 8.008,0.185 9.416,0.926c4.005,2.151 5.08,6.786 2.3,9.936c-1.113,1.298 -4.376,2.782 -6.081,2.782c-0.519,0 -0.89,0.148 -0.816,0.37c0.074,0.186 2.04,3.04 4.376,6.303c4.004,5.561 4.337,5.932 5.486,5.932c0.927,0 1.187,0.148 1.187,0.741c0,0.668 -0.26,0.742 -3.3,0.742l-3.3,0l-4.708,-6.562c-2.632,-3.634 -4.895,-6.748 -5.043,-6.933c-0.185,-0.223 -0.333,2.372 -0.333,5.82l0,6.192l1.483,0c1.224,0 1.482,0.111 1.482,0.741c0,0.706 -0.258,0.742 -5.005,0.742c-4.745,0 -5.004,-0.036 -5.004,-0.742c0,-0.593 0.259,-0.741 1.297,-0.741l1.298,0Zm-11.123,-26.324l0,4.672c0,4.523 -0.037,4.635 -0.779,4.523c-0.63,-0.074 -1.001,-0.742 -1.816,-3.003c-1.521,-4.337 -1.521,-4.337 -6.748,-4.337l-4.376,0l0,10.752l1.78,0c2.226,0 3.115,-0.743 3.968,-3.3c0.444,-1.41 0.815,-1.891 1.335,-1.891c0.667,0 0.704,0.333 0.704,6.117c0,5.858 -0.037,6.118 -0.741,6.118c-0.556,0 -0.816,-0.408 -1.15,-1.668c-0.63,-2.559 -1.742,-3.523 -4.041,-3.523l-1.891,0l0.111,5.857l0.112,5.822l3.521,0.11c5.116,0.112 5.932,-0.481 7.787,-5.709c0.779,-2.299 1.185,-2.965 1.816,-3.04c0.779,-0.111 0.779,0 0.779,5.08l0,5.227l-10.382,0c-10.121,0 -10.381,0 -10.381,-0.742c0,-0.593 0.26,-0.741 1.112,-0.741l1.113,0l0,-24.469l-1.113,0c-0.927,0 -1.112,-0.15 -1.112,-0.928l0,-0.927l20.392,0Zm-94.728,1.855c-1.15,0 -1.299,-0.112 -1.299,-0.928l0,-0.964l3.931,0.112l3.893,0.11l4.745,7.972c2.595,4.412 4.969,8.416 5.339,8.898c0.594,0.853 0.631,0.556 0.631,-7.155l0,-8.045l-1.112,0c-0.928,0 -1.113,-0.15 -1.113,-0.928c0,-0.927 0,-0.927 3.522,-0.927c3.523,0 3.523,0 3.523,0.927c0,0.816 -0.149,0.928 -1.299,0.928l-1.297,0l0,25.952l-0.816,0c-0.704,-0.036 -2.001,-1.964 -7.86,-11.864c-3.819,-6.526 -7.044,-11.864 -7.118,-11.864c-0.074,0 -0.149,5.005 -0.149,11.122l0,11.123l1.113,0c0.852,0 1.112,0.148 1.112,0.741c0,0.706 -0.26,0.742 -3.522,0.742c-3.263,0 -3.523,-0.036 -3.523,-0.742c0,-0.593 0.26,-0.741 1.299,-0.741l1.297,0l0,-24.469l-1.297,0Zm34.147,-1.855c4.597,0 4.634,0 4.522,0.853c-0.073,0.631 -0.408,0.852 -1.334,0.927l-1.187,0.111l0.075,12.124l0.11,12.124l1.224,0.11c0.89,0.075 1.187,0.298 1.187,0.854c0,0.668 -0.297,0.704 -4.635,0.704c-4.374,0 -4.634,-0.036 -4.634,-0.742c0,-0.593 0.26,-0.741 1.112,-0.741l1.112,0l0,-24.469l-1.112,0c-0.927,0 -1.112,-0.15 -1.112,-0.928l0,-0.927l4.672,0Zm20.54,0l0,0.927c0,0.853 -0.15,0.928 -1.484,0.928c-0.815,0 -1.483,0.11 -1.483,0.221c0,0.297 5.636,18.093 5.895,18.576c0.112,0.221 1.557,-3.708 3.152,-8.713c1.63,-5.043 3.002,-9.343 3.077,-9.603c0.111,-0.26 -0.26,-0.481 -0.889,-0.556c-0.743,-0.075 -1.076,-0.333 -1.15,-0.927c-0.112,-0.816 -0.037,-0.853 3.263,-0.853c3.299,0 3.373,0.037 3.263,0.816c-0.075,0.593 -0.446,0.889 -1.187,1.039c-1.039,0.185 -1.112,0.37 -4.56,11.122c-1.892,6.006 -3.708,11.827 -4.041,12.902c-0.558,1.892 -0.594,1.928 -1.928,1.928l-1.372,0l-4.079,-12.902l-4.116,-12.865l-1.185,-0.112c-0.964,-0.111 -1.187,-0.296 -1.187,-1.037l0,-0.891l10.011,0Zm58.32,1.855l-2.707,0l0,10.862l2.557,-0.185c4.339,-0.333 6.712,-2.261 6.712,-5.487c0,-3.337 -2.336,-5.19 -6.562,-5.19Zm133.805,2.076c7.341,-1.558 12.124,-6.488 12.457,-12.866c0.298,-4.894 -1.816,-8.342 -6.08,-9.973c-1.928,-0.741 -3.188,-0.891 -10.9,-1.112c-4.782,-0.185 -9.157,-0.483 -9.677,-0.668c-2.928,-1.149 -2.965,-4.152 -0.036,-5.784c0.259,-0.148 1.185,0.148 2.076,0.668c4.375,2.557 11.011,2.743 15.868,0.444c8.083,-3.855 8.861,-15.72 1.297,-20.799c-1.037,-0.705 -2.113,-1.297 -2.372,-1.297c-0.778,0 -0.556,-1.224 0.594,-3.042c1.185,-1.89 3.558,-3.262 5.634,-3.262l1.262,0l-1.892,-1.891c-1.742,-1.743 -1.964,-1.853 -3.226,-1.631c-3.448,0.667 -6.19,3.819 -6.19,7.119l0,1.52l-3.227,0.148c-5.784,0.333 -9.788,2.632 -11.864,6.896c-0.927,1.853 -1.037,2.521 -1.037,5.636c0,3.113 0.11,3.781 1.074,5.672c0.556,1.187 0.964,2.226 0.927,2.262c-0.073,0.074 -0.667,0.408 -1.297,0.705c-3.448,1.779 -5.339,4.82 -5.339,8.712c0,3.783 1.483,6.34 4.449,7.675l1.446,0.668l-1.446,1.037c-2.04,1.484 -2.706,2.967 -2.521,5.413c0.223,2.447 1.52,4.19 4.375,5.822c4.078,2.298 10.233,3.04 15.645,1.928Zm-9.009,-1.855c-3.782,-1.335 -5.71,-3.781 -5.635,-7.192c0.073,-2.039 0.741,-3.523 1.853,-4.079c1.15,-0.556 16.388,0.075 17.982,0.779c4.634,1.965 1.52,8.528 -5.006,10.456c-2.261,0.667 -7.377,0.704 -9.194,0.036Zm-308.47,-68.812c8.528,0 17.203,0.185 19.28,0.37c9.565,1.002 15.683,4.783 17.499,10.827c2.596,8.489 -2.632,15.46 -13.644,18.277c-3.226,0.816 -3.263,0.854 -1.779,1.076c13.161,2.224 18.945,6.749 19.391,15.202c0.556,10.307 -6.896,16.757 -21.208,18.352c-1.928,0.223 -10.604,0.408 -19.316,0.408l-15.758,0l0,-2.225l4.82,0l0,-60.063l-4.82,0l0,-2.224l15.535,0Zm-32.293,30.846l0.074,-33.441l-1.261,-2.521l-1.26,-2.484l1.297,-1.855c0.706,-1 1.372,-2.076 1.52,-2.299c0.52,-0.889 15.128,-2.78 15.61,-2.038c0.11,0.185 0.593,0.778 1.038,1.334l0.852,1.039l13.719,-1.113l13.755,-1.112l1.112,-1.038c0.593,-0.557 1.076,-1.224 1.076,-1.484c0,-0.258 1.185,-0.518 3.448,-0.666c1.853,-0.148 4.189,-0.371 5.19,-0.483l1.742,-0.223l0.037,-1.705c0,-0.927 0.112,-2.299 0.26,-3.04l0.26,-1.372l42.265,13.496l2.336,5.709c1.298,3.152 2.707,6.86 3.152,8.231l0.815,2.521l4.376,-2.632c2.817,-1.668 4.337,-2.817 4.337,-3.225c0,-1.224 -5.784,-26.399 -6.154,-26.695c-0.186,-0.185 -11.086,-3.708 -24.248,-7.86l-23.914,-7.564l-28.733,2.336c-15.795,1.298 -29.772,2.411 -31.032,2.522l-2.336,0.222l0,-2.596c0,-2.928 0.111,-3.077 3.188,-3.077c0.853,0 2.299,-0.111 3.263,-0.221l1.705,-0.26l0,-4.116c0,-14.274 5.265,-27.474 13.644,-34.11c1.261,-1.038 2.225,-1.89 2.151,-1.965c-0.26,-0.259 -6.6,2.336 -10.234,4.153c-1.928,0.964 -5.005,2.78 -6.858,4.042c-4.19,2.854 -10.642,9.045 -13.755,13.198c-5.599,7.49 -10.308,19.576 -11.16,28.771l-0.223,2.299l-9.38,6.413l-9.417,6.452l0,1.743c0,1.557 0.075,1.742 1.112,2.113c1.039,0.333 1.112,0.481 0.891,1.779c-0.186,1.372 -0.038,1.594 6.376,9.714c5.376,6.784 6.452,8.342 5.969,8.602c-0.296,0.185 -0.852,1.074 -1.223,2.002c-0.778,2.076 -0.52,4.042 0.742,5.339l0.926,0.964l0.26,24.952l0.259,24.915l11.16,-0.075l11.16,-0.11l0.111,-33.481Zm40.821,1.039l-2.188,0l0,30.514l5.005,-0.186c4.598,-0.148 5.154,-0.26 7.119,-1.261c4.152,-2.113 5.524,-6.08 5.228,-15.164c-0.149,-4.189 -0.335,-5.597 -1.001,-7.304c-0.891,-2.299 -2.855,-4.375 -5.043,-5.264c-1.595,-0.668 -6.117,-1.335 -9.12,-1.335Zm276.622,-12.605l0,6.117l0.704,-1.52c2.04,-4.524 6.08,-6.563 10.529,-5.303l1.372,0.371l0,15.164l-1.037,0c-1.039,0 -1.076,-0.111 -2.263,-4.375c-2.039,-7.452 -3.707,-9.12 -6.303,-6.192c-2.113,2.411 -2.261,3.708 -2.261,18.427l0,13.274l1.483,0c1.334,0 1.484,0.112 1.484,0.926l0,0.927l-29.662,0l0,-2.669c-0.037,-2.706 -0.037,-2.706 -0.63,-1.594c-0.852,1.631 -2.707,3.486 -4.3,4.3c-4.264,2.226 -9.195,1.224 -11.568,-2.336c-1.854,-2.817 -2.039,-4.485 -2.039,-19.649l0,-14.015l-1.705,0c-1.52,0 -1.67,-0.075 -1.558,-0.816c0.111,-0.852 0.148,-0.852 6.97,-0.852l6.86,0l0.185,16.684c0.223,18.39 0.185,18.352 2.372,18.352c1.669,0 2.967,-1.112 3.783,-3.225c0.593,-1.595 0.666,-3.411 0.814,-15.943l0.112,-14.2l-0.926,0c-0.779,0 -0.964,-0.185 -0.964,-0.927l0,-0.926l12.605,0l0,35.963l5.932,0l0,-34.11l-1.483,0c-1.334,0 -1.484,-0.075 -1.484,-0.927l0,-0.926l12.978,0Zm-79.714,-11.866c-1.334,0 -1.482,-0.073 -1.482,-0.926l0,-0.927l6.785,0.075l6.747,0.11l0.112,7.527l0.074,7.489l1.038,-0.926c3.04,-2.819 8.416,-1.891 12.532,2.224c2.298,2.298 4.745,7.081 5.524,10.752c1.186,5.709 0.408,11.976 -2.039,16.907c-1.409,2.78 -4.709,6.154 -7.119,7.341c-3.114,1.483 -7.601,1.631 -10.752,0.296c-0.778,-0.333 -2.225,-1.335 -3.189,-2.261c-1,-0.927 -1.928,-1.706 -2.039,-1.706c-0.11,0 -0.481,0.852 -0.853,1.854c-0.667,1.817 -0.667,1.853 -2.261,1.853l-1.594,0l0,-49.682l-1.484,0Zm-125.797,49.311c5.747,-2.817 9.38,-9.973 9.38,-18.314c-0.037,-10.197 -4.708,-17.686 -12.42,-19.651c-8.343,-2.187 -15.832,2.15 -18.983,11.012c-1.299,3.633 -1.595,10.381 -0.668,14.496c1.705,7.712 6.859,13.015 13.384,13.867c3.227,0.408 6.637,-0.111 9.307,-1.41Zm33.776,0.186c6.043,-2.706 9.825,-9.974 9.825,-18.723c-0.037,-8.454 -3.337,-15.164 -8.973,-18.094c-5.932,-3.113 -12.753,-2.334 -17.463,2.04c-3.818,3.522 -5.82,8.231 -6.19,14.571c-0.668,11.419 5.264,20.428 14.05,21.43c3.263,0.37 6.082,-0.038 8.751,-1.224Zm65.847,-13.347l1.222,3.931c2.151,6.932 4.302,9.045 9.195,9.009c1.447,0 3.004,-0.26 3.523,-0.52c2.558,-1.297 3.67,-3.671 3.002,-6.228c-0.704,-2.521 -2.52,-3.745 -9.528,-6.377c-8.49,-3.188 -11.012,-6.007 -11.048,-12.421c-0.037,-2.929 0.074,-3.597 1,-5.45c1.299,-2.632 4.079,-5.191 6.86,-6.266c1.706,-0.705 2.855,-0.853 6.006,-0.853c3.968,-0.037 6.154,0.445 9.788,2.003l1.705,0.704l0,10.826l-1.335,-0.112c-1.334,-0.11 -1.37,-0.11 -2.52,-3.448c-2.077,-5.932 -4.524,-8.341 -8.528,-8.341c-4.857,0 -7.564,4.635 -4.597,7.971c1.409,1.594 2.484,2.188 8.676,4.597c5.449,2.151 7.933,3.819 9.603,6.488c1.037,1.743 1.112,2.04 1.112,5.747c0,3.56 -0.112,4.153 -1.039,6.007c-1.223,2.521 -3.707,4.894 -6.34,6.117c-4.745,2.151 -13.087,1.557 -18.833,-1.372l-1.447,-0.741l0.111,-5.635l0.112,-5.636l3.3,0Zm-43.527,-20.986l1.593,-1.593c2.67,-2.669 6.23,-3.412 10.271,-2.225c1.928,0.556 3.819,2.04 4.708,3.67c0.371,0.668 0.556,0.556 2.151,-1.222c1.409,-1.558 2.15,-2.04 3.818,-2.522c4.004,-1.186 8.714,0.036 10.9,2.818c1.966,2.484 2.151,4.301 2.151,19.909l0,14.2l1.668,0c1.409,0 1.669,0.112 1.669,0.742c0,0.705 -0.26,0.741 -7.972,0.741c-7.712,0 -7.97,-0.036 -7.97,-0.741c0,-0.556 0.258,-0.742 0.926,-0.742l0.927,0l0,-32.664l-0.927,-0.889c-1.557,-1.595 -3.596,-1.002 -4.93,1.409c-0.556,1.075 -0.631,2.78 -0.743,16.462l-0.111,15.274l1.039,0.112c0.741,0.074 1.075,0.334 1.149,0.964l0.111,0.815l-14.904,0l0.111,-0.815c0.074,-0.63 0.408,-0.89 1.149,-0.964l1.039,-0.112l-0.112,-16.016c-0.111,-13.496 -0.186,-16.165 -0.667,-16.869c-1.149,-1.743 -3.337,-1.41 -4.968,0.778c-0.741,1.038 -0.779,1.483 -0.891,16.573l-0.11,15.534l0.853,0.112c0.556,0.074 0.889,0.408 0.963,0.964l0.112,0.815l-16.018,0l0.112,-0.815c0.074,-0.705 0.371,-0.89 1.706,-0.964l1.557,-0.112l0,-34.072l-1.705,0c-1.52,0 -1.67,-0.075 -1.558,-0.816c0.111,-0.852 0.186,-0.852 6.526,-0.964l6.377,-0.073l0,3.298Zm-82.308,32.627l1.593,0.112c1.297,0.074 1.595,0.259 1.669,0.964l0.111,0.815l-17.129,0l0.112,-0.815c0.073,-0.705 0.37,-0.89 1.705,-0.964l1.557,-0.112l0,-47.791l-1.705,0c-1.521,0 -1.669,-0.073 -1.557,-0.814c0.11,-0.854 0.185,-0.854 6.896,-0.964l6.748,-0.075l0,49.644Zm17.833,1.039c-1.595,-0.779 -2.225,-2.447 -2.669,-6.785c-0.52,-4.856 -0.223,-23.247 0.406,-25.805c1.224,-5.042 6.267,-4.782 7.379,0.371c0.631,2.965 0.927,17.315 0.481,23.506c-0.444,6.081 -0.964,7.749 -2.632,8.602c-1.334,0.704 -1.78,0.742 -2.965,0.111Zm148.747,0.111c-0.444,-0.186 -1.112,-0.779 -1.483,-1.372c-0.593,-0.927 -0.666,-2.224 -0.778,-15.015c-0.074,-9.122 0.037,-14.498 0.297,-15.462c0.593,-2.224 2.039,-3.744 3.521,-3.744c3.004,0 3.671,3.188 3.671,17.797c0,12.309 -0.371,15.461 -2.001,17.129c-1.076,1.075 -1.818,1.223 -3.227,0.667Zm-114.749,-0.186c-0.594,-0.333 -1.223,-1.222 -1.668,-2.298c-0.594,-1.631 -0.667,-3.078 -0.667,-15.683c0,-15.016 0.111,-15.98 1.928,-17.426c1.037,-0.816 2.705,-0.964 3.855,-0.37c2.113,1.149 2.706,5.932 2.448,20.465c-0.112,6.748 -0.335,11.383 -0.594,12.235c-0.89,2.892 -3.225,4.227 -5.302,3.077Zm206.624,-15.978c-1.15,-1.484 -1.67,-7.305 -1.187,-13.83c0.371,-4.857 0.964,-6.081 2.965,-6.267c2.67,-0.258 3.375,1.928 3.375,10.604c-0.037,8.343 -0.668,10.457 -3.189,10.457c-0.852,0 -1.408,-0.26 -1.964,-0.964Zm-305.542,-10.531l2.892,0c8.416,0 11.197,-3.448 11.197,-13.866c0,-7.341 -1.149,-10.789 -4.078,-12.421c-1.41,-0.777 -2.262,-0.963 -5.822,-1.075l-4.189,-0.185l0,27.547Zm65.884,-37.26l-2.151,-5.562l-21.652,-7.156l-21.689,-7.156l0,-3.485c0,-1.928 0.111,-3.521 0.259,-3.521c0.185,0 9.9,3.15 21.616,7.044l21.318,7.044l2.335,6.154c2.263,5.97 2.336,6.267 2.225,9.195l-0.112,3.004l-2.149,-5.561Zm-9.752,-31.219c-1.26,-6.896 -4.485,-15.757 -7.86,-21.504c-3.559,-6.043 -9.751,-12.939 -14.719,-16.313c-5.005,-3.374 -10.381,-5.562 -14.162,-5.672c-2.707,-0.111 -2.744,0 -0.112,0.704c8.157,2.225 16.685,8.157 22.357,15.498c5.451,7.082 9.713,16.387 11.531,25.138c0.333,1.63 0.704,3.336 0.778,3.781c0.186,0.741 0.742,1.075 2.076,1.187c0.556,0.036 0.556,-0.223 0.111,-2.819Zm-80.045,-4.412l1.853,-0.221l-0.112,-5.228c-0.221,-10.196 1.965,-19.503 6.304,-26.88c1.631,-2.818 6.34,-7.527 8.527,-8.528c1.928,-0.89 3.152,-1 6.081,-0.63c1.741,0.259 1.964,0.407 3.076,2.076c1.557,2.372 3.115,6.08 4.301,10.196c1.891,6.526 3.523,17.536 3.523,23.766l0,2.742l2.149,-0.11l2.114,-0.111l-0.111,-4.079c-0.333,-12.013 -3.04,-25.249 -6.377,-31.292c-0.63,-1.112 -1.112,-2.224 -1.112,-2.484c0,-0.26 0.63,-0.964 1.372,-1.594l1.372,-1.112l-1.112,-0.408l-1.076,-0.408l1.001,-0.742c0.519,-0.408 1.372,-1.037 1.817,-1.409l0.852,-0.704l-1.112,-1.78c-0.926,-1.556 -1.334,-1.891 -2.744,-2.224l-1.668,-0.408l-0.185,-8.491c-0.112,-4.67 -0.148,-8.564 -0.112,-8.638c0.037,-0.074 1.149,0.26 2.411,0.705c1.63,0.593 2.744,1.26 3.633,2.299l1.297,1.445l0.927,-0.964l0.927,-1.001l-1.335,-2.447l-1.371,-2.484l-3.448,-1.037l-3.485,-1.039l-3.3,1.039c-3.152,0.964 -3.373,1.112 -5.265,3.373c-1.112,1.297 -2.002,2.484 -2.002,2.632c0,0.185 0.371,0.741 0.779,1.299c0.667,0.814 0.927,2.261 1.668,8.489c0.483,4.116 0.889,7.675 0.889,7.86c0,0.223 0.446,1.076 1.002,1.928c0.778,1.224 1.261,1.557 2.484,1.817c1.409,0.259 1.334,0.296 -1.446,0.519c-3.152,0.297 -6.117,1.039 -6.117,1.557c0,0.148 0.371,0.296 0.852,0.334c0.556,0 0.333,0.148 -0.667,0.482c-6.377,2.039 -12.421,7.6 -16.202,14.904c-3.374,6.526 -4.968,12.976 -5.376,21.764l-0.223,5.45l1.447,0c0.778,0 2.298,-0.111 3.3,-0.223Zm43.822,-3.484l0.927,0l-0.221,-3.783c-0.743,-11.493 -2.559,-20.205 -5.748,-27.473c-0.927,-2.187 -3.707,-6.488 -4.746,-7.415c-1.074,-0.926 -1.334,-0.26 -0.444,1.075c4.19,6.192 7.118,18.168 7.6,31.292c0.223,6.489 0.296,6.823 1.112,6.525c0.334,-0.11 1.002,-0.221 1.52,-0.221Z"/></svg>