<?xml version="1.0" encoding="UTF-8" standalone="no"?><!DOCTYPE svg PUBLIC "-//W3C//DTD SVG 1.1//EN" "http://www.w3.org/Graphics/SVG/1.1/DTD/svg11.dtd"><svg width="100%" height="100%" viewBox="0 0 600 318" version="1.1" xmlns="http://www.w3.org/2000/svg" xmlns:xlink="http://www.w3.org/1999/xlink" xml:space="preserve" xmlns:serif="http://www.serif.com/" style="fill-rule:evenodd;clip-rule:evenodd;stroke-linejoin:round;stroke-miterlimit:1.41421;"><path d="M179.076,274.787l0,1.39c0,1.28 -0.222,1.392 -2.28,1.392l-2.28,0l0.222,16.293c0.167,14.405 0.278,16.463 1.169,18.075c2.779,5.061 11.178,4.004 13.957,-1.725c0.78,-1.668 0.89,-4.225 0.89,-17.295l0,-15.348l-1.946,0c-1.723,0 -1.945,-0.168 -1.945,-1.392l0,-1.39l11.121,0l0,1.39c0,1.224 -0.222,1.392 -1.946,1.392l-1.945,0l0,15.794c0,9.844 -0.225,16.405 -0.612,17.406c-0.834,2.224 -3.171,4.56 -5.784,5.784c-2.67,1.224 -8.286,1.333 -11.903,0.222c-1.333,-0.444 -3.28,-1.556 -4.282,-2.558c-3.225,-3.171 -3.56,-5.061 -3.56,-21.744l0,-14.904l-1.668,0c-1.39,0 -1.668,-0.225 -1.668,-1.392l0,-1.39l14.46,0Zm251.706,40.987c5.285,-2.67 7.787,-7.173 7.343,-13.069c-0.39,-4.782 -2.67,-7.007 -10.344,-10.122c-10.79,-4.338 -12.18,-5.282 -12.68,-8.396c-0.669,-4.005 3.726,-7.732 9.063,-7.732c4.116,0 5.897,1.723 7.842,7.507c1.224,3.561 1.725,4.451 2.615,4.451c1.056,0 1.111,-0.39 1.111,-6.119l0,-6.061l-2.779,-1.112c-3.839,-1.446 -11.291,-1.558 -14.85,-0.166c-6.228,2.389 -9.233,9.397 -6.618,15.238c1.39,2.946 4.45,5.172 10.234,7.395c8.676,3.282 10.956,5.339 10.956,9.954c0,4.229 -4.005,7.287 -9.51,7.287c-2.559,0 -3.06,-0.222 -4.728,-2.002c-1.39,-1.446 -2.337,-3.336 -3.393,-6.953c-1.333,-4.338 -1.668,-4.95 -2.779,-4.95c-1.28,0 -1.28,0.113 -1.28,6.675c0,6.284 0.056,6.674 1.28,7.286c5.671,3.058 13.513,3.448 18.517,0.889Zm96.435,-40.987l0,1.336c0,1.221 -0.279,1.389 -2.169,1.556l-2.113,0.168l3.613,7.674c2.004,4.17 3.783,7.618 4.007,7.618c0.331,0 6.895,-12.178 8.23,-15.126c0.111,-0.279 -0.444,-0.444 -1.224,-0.444c-1.168,0 -1.446,-0.279 -1.446,-1.392c0,-1.39 0.056,-1.39 5.006,-1.39c4.95,0 5.004,0 5.004,1.336c0,1.167 -0.278,1.389 -2.003,1.556c-2.001,0.168 -2.055,0.222 -7.227,9.9l-5.172,9.732l-0.057,8.508l0,8.454l2.502,0c2.115,0 2.502,0.166 2.502,1.111c0,1.059 -0.387,1.113 -8.341,1.113c-7.952,0 -8.342,-0.054 -8.342,-1.113c0,-0.945 0.39,-1.111 2.504,-1.111l2.502,0l0,-16.685l-4.838,-10.009l-4.785,-10.01l-2.167,0c-1.892,0 -2.114,-0.168 -2.114,-1.392l0,-1.39l16.128,0Zm-23.358,0l0,6.673c0,6.563 0,6.675 -1.222,6.675c-1.115,0 -1.392,-0.501 -2.226,-3.948c-1.391,-5.674 -2.112,-6.618 -5.172,-6.618l-2.502,0l0,36.704l2.224,0c1.836,0 2.226,0.166 2.226,1.111c0,1.059 -0.39,1.113 -7.786,1.113c-7.398,0 -7.787,-0.054 -7.787,-1.113c0,-0.945 0.389,-1.111 2.225,-1.111l2.224,0l0,-36.704l-2.502,0c-3.06,0 -3.783,0.944 -5.172,6.618c-0.834,3.447 -1.113,3.948 -2.17,3.948c-1.278,0 -1.278,-0.112 -1.278,-6.675l0,-6.673l28.918,0Zm-46.383,0c6.899,0 6.953,0 6.786,1.279c-0.111,0.947 -0.612,1.278 -2.001,1.391l-1.78,0.166l0.112,18.186l0.165,18.186l1.836,0.165c1.335,0.113 1.781,0.447 1.781,1.281c0,1.002 -0.446,1.056 -6.953,1.056c-6.564,0 -6.951,-0.054 -6.951,-1.113c0,-0.889 0.387,-1.111 1.668,-1.111l1.668,0l0,-36.704l-1.668,0c-1.39,0 -1.668,-0.225 -1.668,-1.392l0,-1.39l7.005,0Zm-87.645,39.486l0,-36.65l-1.78,-0.166c-1.446,-0.113 -1.89,-0.444 -2.003,-1.446l-0.222,-1.334l11.903,0.222c10.9,0.165 12.012,0.278 14.124,1.389c6.007,3.227 7.62,10.179 3.45,14.904c-1.67,1.947 -6.564,4.173 -9.122,4.173c-0.778,0 -1.335,0.222 -1.224,0.555c0.111,0.279 3.06,4.56 6.564,9.455c6.006,8.341 6.506,8.898 8.229,8.898c1.391,0 1.781,0.222 1.781,1.111c0,1.002 -0.39,1.113 -4.95,1.113l-4.95,0l-7.062,-9.843c-3.948,-5.451 -7.343,-10.122 -7.565,-10.399c-0.277,-0.335 -0.499,3.558 -0.499,8.73l0,9.288l2.224,0c1.836,0 2.223,0.166 2.223,1.111c0,1.059 -0.387,1.113 -7.507,1.113c-7.118,0 -7.506,-0.054 -7.506,-1.113c0,-0.889 0.388,-1.111 1.945,-1.111l1.947,0Zm-16.684,-39.486l0,7.008c0,6.784 -0.056,6.952 -1.169,6.784c-0.945,-0.111 -1.501,-1.113 -2.724,-4.504c-2.281,-6.506 -2.281,-6.506 -10.122,-6.506l-6.564,0l0,16.128l2.67,0c3.339,0 4.673,-1.114 5.952,-4.95c0.666,-2.115 1.223,-2.836 2.003,-2.836c1,0 1.056,0.499 1.056,9.175c0,8.787 -0.056,9.177 -1.112,9.177c-0.834,0 -1.224,-0.612 -1.725,-2.502c-0.945,-3.838 -2.613,-5.284 -6.061,-5.284l-2.837,0l0.167,8.785l0.168,8.733l5.281,0.165c7.674,0.168 8.898,-0.721 11.681,-8.563c1.168,-3.449 1.777,-4.448 2.724,-4.56c1.168,-0.167 1.168,0 1.168,7.62l0,7.84l-15.573,0c-15.181,0 -15.571,0 -15.571,-1.113c0,-0.889 0.39,-1.111 1.668,-1.111l1.669,0l0,-36.704l-1.669,0c-1.391,0 -1.668,-0.225 -1.668,-1.392l0,-1.39l30.588,0Zm-142.092,2.782c-1.725,0 -1.949,-0.168 -1.949,-1.392l0,-1.446l5.897,0.168l5.839,0.165l7.118,11.958c3.892,6.618 7.453,12.624 8.008,13.347c0.891,1.28 0.947,0.834 0.947,-10.732l0,-12.068l-1.668,0c-1.392,0 -1.67,-0.225 -1.67,-1.392c0,-1.39 0,-1.39 5.283,-1.39c5.285,0 5.285,0 5.285,1.39c0,1.224 -0.224,1.392 -1.949,1.392l-1.945,0l0,38.928l-1.224,0c-1.056,-0.054 -3.002,-2.946 -11.79,-17.796c-5.729,-9.789 -10.566,-17.796 -10.677,-17.796c-0.111,0 -0.224,7.508 -0.224,16.683l0,16.685l1.67,0c1.278,0 1.668,0.222 1.668,1.111c0,1.059 -0.39,1.113 -5.283,1.113c-4.895,0 -5.285,-0.054 -5.285,-1.113c0,-0.889 0.39,-1.111 1.949,-1.111l1.945,0l0,-36.704l-1.945,0Zm51.22,-2.782c6.896,0 6.951,0 6.783,1.279c-0.109,0.947 -0.612,1.278 -2.001,1.391l-1.78,0.166l0.112,18.186l0.165,18.186l1.836,0.165c1.335,0.113 1.781,0.447 1.781,1.281c0,1.002 -0.446,1.056 -6.953,1.056c-6.561,0 -6.951,-0.054 -6.951,-1.113c0,-0.889 0.39,-1.111 1.668,-1.111l1.668,0l0,-36.704l-1.668,0c-1.39,0 -1.668,-0.225 -1.668,-1.392l0,-1.39l7.008,0Zm30.81,0l0,1.39c0,1.28 -0.225,1.392 -2.226,1.392c-1.222,0 -2.224,0.165 -2.224,0.332c0,0.445 8.454,27.139 8.842,27.864c0.168,0.331 2.336,-5.562 4.728,-13.07c2.445,-7.564 4.503,-14.014 4.616,-14.404c0.166,-0.39 -0.39,-0.722 -1.334,-0.834c-1.114,-0.113 -1.614,-0.5 -1.725,-1.391c-0.168,-1.224 -0.055,-1.279 4.895,-1.279c4.948,0 5.059,0.055 4.894,1.224c-0.112,0.889 -0.669,1.333 -1.78,1.558c-1.559,0.278 -1.668,0.555 -6.84,16.683c-2.838,9.009 -5.562,17.741 -6.062,19.353c-0.837,2.838 -0.891,2.892 -2.892,2.892l-2.058,0l-6.118,-19.353l-6.174,-19.297l-1.778,-0.168c-1.446,-0.167 -1.78,-0.444 -1.78,-1.556l0,-1.336l15.016,0Zm87.48,2.782l-4.06,0l0,16.293l3.835,-0.277c6.509,-0.5 10.068,-3.392 10.068,-8.231c0,-5.005 -3.504,-7.785 -9.843,-7.785Zm200.708,3.114c11.011,-2.337 18.186,-9.732 18.685,-19.299c0.447,-7.341 -2.724,-12.513 -9.12,-14.959c-2.892,-1.112 -4.782,-1.337 -16.35,-1.668c-7.173,-0.278 -13.735,-0.725 -14.515,-1.002c-4.392,-1.724 -4.448,-6.228 -0.054,-8.676c0.388,-0.222 1.777,0.222 3.114,1.002c6.562,3.835 16.516,4.114 23.802,0.666c12.124,-5.783 13.291,-23.58 1.945,-31.199c-1.555,-1.057 -3.169,-1.945 -3.558,-1.945c-1.167,0 -0.834,-1.836 0.891,-4.563c1.778,-2.835 5.337,-4.893 8.451,-4.893l1.893,0l-2.838,-2.837c-2.613,-2.614 -2.946,-2.779 -4.839,-2.446c-5.172,1 -9.285,5.728 -9.285,10.678l0,2.28l-4.84,0.222c-8.676,0.5 -14.682,3.948 -17.796,10.344c-1.391,2.78 -1.556,3.782 -1.556,8.454c0,4.67 0.165,5.672 1.611,8.508c0.834,1.781 1.446,3.339 1.391,3.393c-0.11,0.111 -1.001,0.612 -1.946,1.058c-5.172,2.668 -8.008,7.23 -8.008,13.068c0,5.674 2.224,9.51 6.673,11.512l2.169,1.002l-2.169,1.556c-3.06,2.226 -4.059,4.45 -3.781,8.119c0.334,3.671 2.28,6.285 6.562,8.733c6.117,3.447 15.35,4.56 23.468,2.892Zm-13.514,-2.782c-5.673,-2.003 -8.565,-5.672 -8.452,-10.788c0.109,-3.059 1.111,-5.285 2.779,-6.119c1.725,-0.834 24.582,0.113 26.973,1.169c6.951,2.947 2.28,12.792 -7.509,15.684c-3.391,1 -11.065,1.056 -13.791,0.054Zm-462.705,-103.218c12.792,0 25.805,0.277 28.92,0.555c14.348,1.503 23.525,7.174 26.249,16.24c3.894,12.734 -3.948,23.19 -20.466,27.416c-4.839,1.224 -4.895,1.281 -2.669,1.614c19.742,3.336 28.418,10.123 29.087,22.803c0.834,15.46 -10.344,25.135 -31.812,27.528c-2.892,0.334 -15.906,0.612 -28.974,0.612l-23.637,0l0,-3.338l7.23,0l0,-90.094l-7.23,0l0,-3.336l23.302,0Zm-48.439,46.269l0.111,-50.162l-1.892,-3.781l-1.89,-3.726l1.946,-2.783c1.059,-1.5 2.058,-3.114 2.28,-3.448c0.78,-1.334 22.692,-4.17 23.415,-3.057c0.165,0.277 0.889,1.167 1.557,2.001l1.278,1.558l20.578,-1.669l20.633,-1.668l1.668,-1.557c0.889,-0.836 1.614,-1.836 1.614,-2.226c0,-0.387 1.777,-0.777 5.172,-0.999c2.779,-0.222 6.283,-0.557 7.785,-0.725l2.613,-0.334l0.055,-2.558c0,-1.39 0.168,-3.448 0.39,-4.56l0.39,-2.058l63.398,20.244l3.504,8.564c1.947,4.728 4.06,10.29 4.728,12.346l1.222,3.782l6.564,-3.948c4.226,-2.502 6.506,-4.226 6.506,-4.838c0,-1.836 -8.676,-39.598 -9.231,-40.042c-0.279,-0.278 -16.629,-5.562 -36.372,-11.79l-35.871,-11.346l-43.1,3.504c-23.692,1.947 -44.658,3.616 -46.548,3.783l-3.504,0.333l0,-3.894c0,-4.392 0.167,-4.616 4.782,-4.616c1.28,0 3.449,-0.166 4.895,-0.331l2.557,-0.39l0,-6.174c0,-21.411 7.898,-41.211 20.466,-51.165c1.892,-1.557 3.338,-2.835 3.227,-2.948c-0.39,-0.388 -9.9,3.504 -15.351,6.23c-2.892,1.446 -7.508,4.17 -10.287,6.063c-6.285,4.281 -15.963,13.567 -20.633,19.797c-8.398,11.235 -15.462,29.364 -16.74,43.156l-0.334,3.449l-14.07,9.619l-14.126,9.678l0,2.615c0,2.335 0.113,2.613 1.668,3.169c1.559,0.5 1.668,0.722 1.337,2.669c-0.279,2.058 -0.057,2.391 9.564,14.571c8.064,10.176 9.678,12.513 8.953,12.903c-0.444,0.277 -1.278,1.611 -1.834,3.003c-1.167,3.114 -0.78,6.063 1.113,8.008l1.389,1.446l0.39,37.428l0.388,37.373l16.74,-0.113l16.74,-0.165l0.167,-50.221Zm61.231,1.558l-3.282,0l0,45.771l7.508,-0.279c6.897,-0.222 7.731,-0.39 10.678,-1.891c6.228,-3.17 8.286,-9.12 7.842,-22.746c-0.223,-6.284 -0.502,-8.396 -1.501,-10.956c-1.337,-3.449 -4.283,-6.563 -7.565,-7.896c-2.392,-1.002 -9.175,-2.003 -13.68,-2.003Zm414.933,-18.907l0,9.175l1.056,-2.28c3.06,-6.786 9.12,-9.844 15.794,-7.954l2.058,0.556l0,22.746l-1.556,0c-1.558,0 -1.614,-0.166 -3.394,-6.562c-3.059,-11.178 -5.561,-13.68 -9.455,-9.288c-3.169,3.616 -3.391,5.562 -3.391,27.64l0,19.911l2.224,0c2.001,0 2.226,0.168 2.226,1.389l0,1.391l-44.493,0l0,-4.004c-0.055,-4.059 -0.055,-4.059 -0.945,-2.391c-1.278,2.447 -4.06,5.229 -6.45,6.45c-6.396,3.339 -13.792,1.836 -17.352,-3.504c-2.781,-4.225 -3.058,-6.727 -3.058,-29.473l0,-21.023l-2.558,0c-2.28,0 -2.505,-0.112 -2.337,-1.224c0.167,-1.278 0.222,-1.278 10.455,-1.278l10.29,0l0.278,25.026c0.334,27.585 0.277,27.528 3.558,27.528c2.503,0 4.45,-1.668 5.674,-4.837c0.89,-2.393 0.999,-5.117 1.221,-23.915l0.168,-21.3l-1.389,0c-1.168,0 -1.446,-0.277 -1.446,-1.39l0,-1.389l18.908,0l0,53.944l8.898,0l0,-51.165l-2.225,0c-2.001,0 -2.226,-0.112 -2.226,-1.39l0,-1.389l19.467,0Zm-119.571,-17.799c-2.001,0 -2.223,-0.11 -2.223,-1.389l0,-1.391l10.178,0.113l10.12,0.165l0.168,11.29l0.111,11.234l1.557,-1.389c4.56,-4.229 12.624,-2.837 18.798,3.336c3.447,3.447 7.118,10.621 8.286,16.128c1.779,8.563 0.612,17.964 -3.058,25.36c-2.114,4.17 -7.064,9.231 -10.679,11.012c-4.671,2.224 -11.401,2.446 -16.128,0.444c-1.167,-0.5 -3.337,-2.003 -4.783,-3.392c-1.5,-1.39 -2.892,-2.559 -3.059,-2.559c-0.165,0 -0.721,1.278 -1.279,2.781c-1.001,2.726 -1.001,2.78 -3.392,2.78l-2.391,0l0,-74.523l-2.226,0Zm-188.695,73.966c8.62,-4.225 14.07,-14.959 14.07,-27.471c-0.056,-15.295 -7.062,-26.529 -18.63,-29.476c-12.515,-3.281 -23.748,3.225 -28.475,16.518c-1.948,5.449 -2.392,15.571 -1.002,21.744c2.558,11.568 10.289,19.522 20.076,20.8c4.841,0.612 9.956,-0.166 13.961,-2.115Zm50.664,0.279c9.064,-4.059 14.737,-14.961 14.737,-28.084c-0.055,-12.681 -5.005,-22.746 -13.459,-27.141c-8.898,-4.67 -19.13,-3.501 -26.195,3.06c-5.727,5.283 -8.73,12.346 -9.285,21.856c-1.002,17.129 7.896,30.642 21.075,32.145c4.895,0.555 9.123,-0.057 13.127,-1.836Zm98.77,-20.02l1.833,5.896c3.227,10.398 6.453,13.568 13.793,13.514c2.17,0 4.506,-0.39 5.284,-0.78c3.837,-1.946 5.505,-5.507 4.503,-9.342c-1.056,-3.782 -3.78,-5.618 -14.292,-9.566c-12.735,-4.782 -16.518,-9.01 -16.572,-18.631c-0.055,-4.394 0.111,-5.396 1.5,-8.175c1.949,-3.948 6.119,-7.787 10.29,-9.399c2.559,-1.058 4.283,-1.28 9.009,-1.28c5.952,-0.055 9.231,0.668 14.682,3.005l2.558,1.056l0,16.239l-2.003,-0.168c-2.001,-0.165 -2.055,-0.165 -3.78,-5.172c-3.115,-8.898 -6.786,-12.512 -12.792,-12.512c-7.285,0 -11.346,6.953 -6.895,11.957c2.113,2.391 3.726,3.282 13.014,6.895c8.173,3.227 11.899,5.729 14.404,9.732c1.556,2.615 1.668,3.06 1.668,8.621c0,5.34 -0.168,6.229 -1.558,9.01c-1.835,3.782 -5.561,7.341 -9.51,9.176c-7.118,3.226 -19.631,2.335 -28.25,-2.058l-2.17,-1.112l0.166,-8.452l0.168,-8.454l4.95,0Zm-65.29,-31.479l2.389,-2.39c4.005,-4.003 9.345,-5.118 15.407,-3.337c2.892,0.834 5.728,3.06 7.062,5.505c0.556,1.002 0.834,0.834 3.226,-1.833c2.114,-2.337 3.225,-3.06 5.727,-3.783c6.006,-1.779 13.071,0.054 16.35,4.227c2.949,3.726 3.227,6.451 3.227,29.863l0,21.3l2.502,0c2.113,0 2.503,0.168 2.503,1.113c0,1.058 -0.39,1.112 -11.958,1.112c-11.568,0 -11.955,-0.054 -11.955,-1.112c0,-0.834 0.387,-1.113 1.389,-1.113l1.391,0l0,-48.996l-1.391,-1.333c-2.335,-2.393 -5.394,-1.503 -7.395,2.113c-0.834,1.613 -0.946,4.17 -1.114,24.693l-0.167,22.911l1.559,0.168c1.111,0.111 1.612,0.501 1.723,1.446l0.167,1.223l-22.356,0l0.166,-1.223c0.111,-0.945 0.612,-1.335 1.724,-1.446l1.558,-0.168l-0.168,-24.024c-0.166,-20.244 -0.279,-24.247 -1,-25.303c-1.724,-2.615 -5.006,-2.115 -7.452,1.167c-1.112,1.557 -1.169,2.224 -1.337,24.859l-0.165,23.301l1.28,0.168c0.834,0.111 1.333,0.612 1.444,1.446l0.168,1.223l-24.027,0l0.168,-1.223c0.111,-1.057 0.557,-1.335 2.559,-1.446l2.336,-0.168l0,-51.108l-2.558,0c-2.28,0 -2.505,-0.112 -2.337,-1.224c0.167,-1.278 0.279,-1.278 9.789,-1.446l9.566,-0.109l0,4.947Zm-123.462,48.94l2.389,0.168c1.946,0.111 2.393,0.389 2.504,1.446l0.166,1.223l-25.693,0l0.168,-1.223c0.109,-1.057 0.555,-1.335 2.557,-1.446l2.336,-0.168l0,-71.686l-2.558,0c-2.281,0 -2.503,-0.11 -2.335,-1.221c0.165,-1.281 0.277,-1.281 10.344,-1.446l10.122,-0.113l0,74.466Zm26.749,1.559c-2.392,-1.169 -3.337,-3.671 -4.003,-10.178c-0.78,-7.284 -0.335,-34.87 0.609,-38.707c1.836,-7.563 9.4,-7.173 11.068,0.556c0.947,4.448 1.391,25.973 0.722,35.259c-0.666,9.122 -1.446,11.624 -3.948,12.903c-2.001,1.056 -2.67,1.113 -4.448,0.167Zm223.121,0.166c-0.666,-0.279 -1.668,-1.168 -2.225,-2.058c-0.889,-1.39 -0.999,-3.336 -1.167,-22.522c-0.111,-13.683 0.056,-21.747 0.446,-23.193c0.889,-3.336 3.058,-5.616 5.281,-5.616c4.506,0 5.507,4.782 5.507,26.695c0,18.464 -0.557,23.192 -3.002,25.694c-1.614,1.612 -2.727,1.834 -4.84,1Zm-172.124,-0.279c-0.891,-0.499 -1.834,-1.833 -2.502,-3.447c-0.891,-2.446 -1,-4.617 -1,-23.524c0,-22.524 0.166,-23.97 2.892,-26.139c1.555,-1.224 4.057,-1.446 5.782,-0.555c3.17,1.723 4.059,8.898 3.672,30.697c-0.168,10.122 -0.502,17.075 -0.891,18.353c-1.335,4.338 -4.837,6.34 -7.953,4.615Zm309.936,-23.967c-1.725,-2.226 -2.505,-10.957 -1.78,-20.745c0.556,-7.285 1.446,-9.121 4.447,-9.4c4.005,-0.387 5.063,2.892 5.063,15.906c-0.056,12.514 -1.002,15.685 -4.784,15.685c-1.278,0 -2.112,-0.39 -2.946,-1.446Zm-458.313,-15.796l4.338,0c12.624,0 16.796,-5.172 16.796,-20.799c0,-11.012 -1.724,-16.184 -6.117,-18.632c-2.115,-1.165 -3.393,-1.444 -8.733,-1.612l-6.284,-0.278l0,41.321Zm98.826,-55.89l-3.226,-8.343l-32.478,-10.734l-32.534,-10.734l0,-5.228c0,-2.892 0.167,-5.281 0.389,-5.281c0.277,0 14.85,4.725 32.424,10.566l31.977,10.566l3.502,9.231c3.395,8.955 3.504,9.4 3.338,13.792l-0.168,4.506l-3.224,-8.341Zm-14.628,-46.829c-1.89,-10.344 -6.727,-23.635 -11.79,-32.256c-5.338,-9.064 -14.626,-19.408 -22.078,-24.469c-7.508,-5.061 -15.572,-8.343 -21.243,-8.508c-4.061,-0.167 -4.116,0 -0.168,1.056c12.235,3.337 25.027,12.235 33.535,23.247c8.177,10.623 14.57,24.58 17.297,37.707c0.499,2.445 1.056,5.004 1.167,5.671c0.279,1.112 1.113,1.613 3.114,1.781c0.834,0.054 0.834,-0.335 0.166,-4.229Zm-120.067,-6.618l2.779,-0.331l-0.168,-7.842c-0.331,-15.294 2.948,-29.255 9.456,-40.32c2.447,-4.227 9.51,-11.291 12.791,-12.792c2.892,-1.335 4.728,-1.5 9.121,-0.945c2.612,0.388 2.946,0.61 4.614,3.114c2.336,3.558 4.673,9.12 6.452,15.294c2.836,9.789 5.284,26.304 5.284,35.649l0,4.113l3.224,-0.165l3.171,-0.167l-0.167,-6.118c-0.499,-18.02 -4.56,-37.874 -9.565,-46.938c-0.945,-1.668 -1.668,-3.336 -1.668,-3.726c0,-0.39 0.945,-1.446 2.058,-2.391l2.058,-1.668l-1.668,-0.612l-1.614,-0.612l1.501,-1.113c0.779,-0.612 2.058,-1.556 2.726,-2.114l1.278,-1.056l-1.668,-2.67c-1.389,-2.334 -2.001,-2.836 -4.116,-3.336l-2.502,-0.612l-0.278,-12.736c-0.168,-7.005 -0.222,-12.846 -0.168,-12.957c0.056,-0.111 1.724,0.39 3.617,1.057c2.445,0.89 4.116,1.89 5.449,3.449l1.946,2.167l1.39,-1.446l1.391,-1.501l-2.003,-3.671l-2.056,-3.726l-5.172,-1.555l-5.228,-1.559l-4.95,1.559c-4.728,1.446 -5.059,1.668 -7.897,5.059c-1.668,1.946 -3.003,3.726 -3.003,3.948c0,0.278 0.556,1.112 1.168,1.949c1.001,1.221 1.391,3.391 2.502,12.733c0.725,6.174 1.334,11.513 1.334,11.79c0,0.335 0.669,1.614 1.503,2.892c1.167,1.836 1.891,2.336 3.726,2.726c2.113,0.388 2.001,0.444 -2.169,0.778c-4.728,0.446 -9.176,1.559 -9.176,2.336c0,0.222 0.557,0.444 1.278,0.501c0.834,0 0.5,0.222 -1,0.723c-9.566,3.058 -18.632,11.4 -24.303,22.356c-5.061,9.789 -7.452,19.464 -8.064,32.646l-0.335,8.175l2.171,0c1.167,0 3.447,-0.167 4.95,-0.335Zm65.733,-5.226l1.39,0l-0.331,-5.674c-1.115,-17.24 -3.839,-30.308 -8.622,-41.21c-1.391,-3.28 -5.561,-9.732 -7.119,-11.122c-1.611,-1.389 -2.001,-0.39 -0.666,1.612c6.285,9.288 10.677,27.252 11.4,46.938c0.334,9.734 0.444,10.235 1.668,9.788c0.501,-0.165 1.503,-0.332 2.28,-0.332Z"/></svg>