<?xml version="1.0" encoding="UTF-8" standalone="no"?><!DOCTYPE svg PUBLIC "-//W3C//DTD SVG 1.1//EN" "http://www.w3.org/Graphics/SVG/1.1/DTD/svg11.dtd"><svg width="100%" height="100%" viewBox="0 0 300 159" version="1.1" xmlns="http://www.w3.org/2000/svg" xmlns:xlink="http://www.w3.org/1999/xlink" xml:space="preserve" xmlns:serif="http://www.serif.com/" style="fill-rule:evenodd;clip-rule:evenodd;stroke-linejoin:round;stroke-miterlimit:1.41421;"><path d="M89.538,137.393l0,0.695c0,0.64 -0.111,0.696 -1.14,0.696l-1.14,0l0.111,8.147c0.083,7.202 0.139,8.231 0.584,9.037c1.39,2.531 5.589,2.002 6.979,-0.862c0.39,-0.834 0.445,-2.113 0.445,-8.648l0,-7.674l-0.973,0c-0.862,0 -0.973,-0.084 -0.973,-0.696l0,-0.695l5.561,0l0,0.695c0,0.612 -0.111,0.696 -0.973,0.696l-0.973,0l0,7.897c0,4.922 -0.112,8.203 -0.306,8.703c-0.417,1.112 -1.585,2.28 -2.892,2.892c-1.335,0.612 -4.143,0.667 -5.951,0.111c-0.667,-0.222 -1.64,-0.778 -2.141,-1.279c-1.613,-1.585 -1.78,-2.53 -1.78,-10.872l0,-7.452l-0.834,0c-0.695,0 -0.834,-0.112 -0.834,-0.696l0,-0.695l7.23,0Zm125.853,20.494c2.642,-1.335 3.893,-3.587 3.671,-6.535c-0.195,-2.391 -1.335,-3.503 -5.172,-5.061c-5.395,-2.169 -6.09,-2.641 -6.34,-4.198c-0.334,-2.002 1.863,-3.866 4.532,-3.866c2.058,0 2.948,0.862 3.921,3.754c0.612,1.78 0.862,2.225 1.307,2.225c0.528,0 0.556,-0.195 0.556,-3.059l0,-3.031l-1.39,-0.556c-1.919,-0.723 -5.645,-0.779 -7.425,-0.083c-3.114,1.195 -4.616,4.699 -3.309,7.619c0.695,1.473 2.225,2.586 5.117,3.698c4.338,1.641 5.478,2.669 5.478,4.977c0,2.114 -2.002,3.643 -4.755,3.643c-1.279,0 -1.53,-0.111 -2.364,-1.001c-0.695,-0.723 -1.168,-1.668 -1.696,-3.476c-0.667,-2.169 -0.834,-2.475 -1.39,-2.475c-0.64,0 -0.64,0.056 -0.64,3.337c0,3.142 0.028,3.337 0.64,3.643c2.836,1.529 6.757,1.724 9.259,0.445Zm48.217,-20.494l0,0.668c0,0.611 -0.139,0.695 -1.084,0.778l-1.057,0.084l1.807,3.837c1.002,2.085 1.891,3.809 2.003,3.809c0.166,0 3.448,-6.089 4.115,-7.563c0.056,-0.139 -0.222,-0.222 -0.612,-0.222c-0.584,0 -0.723,-0.139 -0.723,-0.696c0,-0.695 0.028,-0.695 2.503,-0.695c2.475,0 2.502,0 2.502,0.668c0,0.584 -0.139,0.695 -1.001,0.778c-1.001,0.084 -1.028,0.111 -3.614,4.95l-2.586,4.866l-0.028,4.254l0,4.227l1.251,0c1.057,0 1.251,0.083 1.251,0.556c0,0.529 -0.194,0.556 -4.171,0.556c-3.976,0 -4.171,-0.027 -4.171,-0.556c0,-0.473 0.195,-0.556 1.252,-0.556l1.251,0l0,-8.342l-2.419,-5.005l-2.392,-5.005l-1.084,0c-0.946,0 -1.057,-0.084 -1.057,-0.696l0,-0.695l8.064,0Zm-11.679,0l0,3.337c0,3.281 0,3.337 -0.611,3.337c-0.557,0 -0.696,-0.25 -1.113,-1.974c-0.695,-2.837 -1.056,-3.309 -2.586,-3.309l-1.251,0l0,18.352l1.112,0c0.918,0 1.113,0.083 1.113,0.556c0,0.529 -0.195,0.556 -3.893,0.556c-3.699,0 -3.893,-0.027 -3.893,-0.556c0,-0.473 0.194,-0.556 1.112,-0.556l1.112,0l0,-18.352l-1.251,0c-1.53,0 -1.891,0.472 -2.586,3.309c-0.417,1.724 -0.556,1.974 -1.085,1.974c-0.639,0 -0.639,-0.056 -0.639,-3.337l0,-3.337l14.459,0Zm-23.191,0c3.449,0 3.476,0 3.393,0.64c-0.056,0.473 -0.306,0.639 -1.001,0.695l-0.89,0.083l0.056,9.093l0.083,9.093l0.918,0.083c0.667,0.056 0.89,0.223 0.89,0.64c0,0.501 -0.223,0.528 -3.476,0.528c-3.282,0 -3.476,-0.027 -3.476,-0.556c0,-0.445 0.194,-0.556 0.834,-0.556l0.834,0l0,-18.352l-0.834,0c-0.695,0 -0.834,-0.112 -0.834,-0.696l0,-0.695l3.503,0Zm-43.823,19.743l0,-18.325l-0.89,-0.083c-0.723,-0.056 -0.945,-0.222 -1.001,-0.723l-0.111,-0.667l5.951,0.111c5.45,0.083 6.006,0.139 7.062,0.695c3.004,1.613 3.81,5.089 1.725,7.452c-0.835,0.973 -3.282,2.086 -4.561,2.086c-0.389,0 -0.667,0.111 -0.612,0.278c0.056,0.139 1.53,2.28 3.282,4.727c3.003,4.171 3.253,4.449 4.115,4.449c0.695,0 0.89,0.111 0.89,0.556c0,0.501 -0.195,0.556 -2.475,0.556l-2.475,0l-3.531,-4.921c-1.974,-2.726 -3.671,-5.061 -3.782,-5.2c-0.139,-0.167 -0.25,1.779 -0.25,4.365l0,4.644l1.112,0c0.918,0 1.112,0.083 1.112,0.556c0,0.529 -0.194,0.556 -3.754,0.556c-3.559,0 -3.753,-0.027 -3.753,-0.556c0,-0.445 0.194,-0.556 0.973,-0.556l0.973,0Zm-8.342,-19.743l0,3.504c0,3.392 -0.028,3.476 -0.584,3.392c-0.473,-0.055 -0.751,-0.556 -1.362,-2.252c-1.141,-3.253 -1.141,-3.253 -5.061,-3.253l-3.282,0l0,8.064l1.335,0c1.669,0 2.336,-0.557 2.976,-2.475c0.333,-1.057 0.611,-1.418 1.001,-1.418c0.5,0 0.528,0.25 0.528,4.588c0,4.393 -0.028,4.588 -0.556,4.588c-0.417,0 -0.612,-0.306 -0.862,-1.251c-0.473,-1.919 -1.307,-2.642 -3.031,-2.642l-1.418,0l0.083,4.393l0.084,4.366l2.641,0.083c3.837,0.084 4.449,-0.361 5.84,-4.282c0.584,-1.724 0.889,-2.224 1.362,-2.28c0.584,-0.083 0.584,0 0.584,3.81l0,3.92l-7.786,0c-7.591,0 -7.786,0 -7.786,-0.556c0,-0.445 0.195,-0.556 0.834,-0.556l0.835,0l0,-18.352l-0.835,0c-0.695,0 -0.834,-0.112 -0.834,-0.696l0,-0.695l15.294,0Zm-71.046,1.391c-0.862,0 -0.974,-0.084 -0.974,-0.696l0,-0.723l2.948,0.084l2.92,0.083l3.559,5.979c1.946,3.309 3.726,6.312 4.004,6.673c0.445,0.64 0.473,0.417 0.473,-5.366l0,-6.034l-0.834,0c-0.696,0 -0.835,-0.112 -0.835,-0.696c0,-0.695 0,-0.695 2.642,-0.695c2.642,0 2.642,0 2.642,0.695c0,0.612 -0.112,0.696 -0.974,0.696l-0.973,0l0,19.464l-0.612,0c-0.528,-0.027 -1.501,-1.473 -5.895,-8.898c-2.864,-4.894 -5.283,-8.898 -5.338,-8.898c-0.056,0 -0.112,3.754 -0.112,8.342l0,8.342l0.835,0c0.639,0 0.834,0.111 0.834,0.556c0,0.529 -0.195,0.556 -2.642,0.556c-2.447,0 -2.642,-0.027 -2.642,-0.556c0,-0.445 0.195,-0.556 0.974,-0.556l0.973,0l0,-18.352l-0.973,0Zm25.61,-1.391c3.448,0 3.476,0 3.392,0.64c-0.055,0.473 -0.306,0.639 -1.001,0.695l-0.89,0.083l0.056,9.093l0.083,9.093l0.918,0.083c0.667,0.056 0.89,0.223 0.89,0.64c0,0.501 -0.223,0.528 -3.476,0.528c-3.281,0 -3.476,-0.027 -3.476,-0.556c0,-0.445 0.195,-0.556 0.834,-0.556l0.834,0l0,-18.352l-0.834,0c-0.695,0 -0.834,-0.112 -0.834,-0.696l0,-0.695l3.504,0Zm15.405,0l0,0.695c0,0.64 -0.112,0.696 -1.113,0.696c-0.611,0 -1.112,0.083 -1.112,0.166c0,0.223 4.227,13.57 4.421,13.932c0.084,0.166 1.168,-2.781 2.364,-6.535c1.223,-3.782 2.252,-7.007 2.308,-7.202c0.083,-0.195 -0.195,-0.361 -0.667,-0.417c-0.557,-0.056 -0.807,-0.25 -0.862,-0.695c-0.084,-0.612 -0.028,-0.64 2.447,-0.64c2.474,0 2.53,0.028 2.447,0.612c-0.056,0.445 -0.334,0.667 -0.89,0.779c-0.779,0.139 -0.834,0.278 -3.42,8.342c-1.419,4.504 -2.781,8.87 -3.031,9.676c-0.418,1.419 -0.445,1.446 -1.446,1.446l-1.029,0l-3.059,-9.676l-3.087,-9.649l-0.889,-0.084c-0.723,-0.083 -0.89,-0.222 -0.89,-0.778l0,-0.668l7.508,0Zm43.74,1.391l-2.03,0l0,8.147l1.918,-0.139c3.254,-0.25 5.034,-1.696 5.034,-4.115c0,-2.503 -1.752,-3.893 -4.922,-3.893Zm100.354,1.557c5.506,-1.168 9.093,-4.866 9.343,-9.649c0.223,-3.671 -1.362,-6.257 -4.56,-7.48c-1.446,-0.556 -2.391,-0.668 -8.175,-0.834c-3.587,-0.139 -6.868,-0.362 -7.258,-0.501c-2.196,-0.862 -2.224,-3.114 -0.027,-4.338c0.194,-0.111 0.889,0.111 1.557,0.501c3.281,1.918 8.258,2.057 11.901,0.333c6.062,-2.891 6.646,-11.79 0.973,-15.599c-0.778,-0.529 -1.585,-0.973 -1.779,-0.973c-0.584,0 -0.417,-0.918 0.445,-2.281c0.889,-1.418 2.669,-2.447 4.226,-2.447l0.946,0l-1.419,-1.418c-1.306,-1.307 -1.473,-1.39 -2.419,-1.223c-2.586,0.5 -4.643,2.864 -4.643,5.339l0,1.14l-2.42,0.111c-4.338,0.25 -7.341,1.974 -8.898,5.172c-0.695,1.39 -0.778,1.891 -0.778,4.227c0,2.335 0.083,2.836 0.806,4.254c0.417,0.89 0.723,1.669 0.695,1.696c-0.055,0.056 -0.5,0.306 -0.973,0.529c-2.586,1.334 -4.004,3.615 -4.004,6.534c0,2.837 1.112,4.755 3.337,5.756l1.084,0.501l-1.084,0.778c-1.53,1.113 -2.03,2.225 -1.891,4.06c0.167,1.835 1.14,3.142 3.281,4.366c3.059,1.724 7.675,2.28 11.734,1.446Zm-6.757,-1.391c-2.836,-1.001 -4.282,-2.836 -4.226,-5.394c0.055,-1.529 0.556,-2.642 1.39,-3.059c0.862,-0.417 12.291,0.056 13.486,0.584c3.476,1.474 1.14,6.396 -3.754,7.842c-1.696,0.5 -5.533,0.528 -6.896,0.027Zm-231.352,-51.609c6.396,0 12.902,0.139 14.46,0.278c7.174,0.751 11.762,3.587 13.124,8.12c1.947,6.367 -1.974,11.595 -10.233,13.708c-2.419,0.612 -2.447,0.64 -1.334,0.807c9.871,1.668 14.209,5.061 14.543,11.401c0.417,7.73 -5.172,12.568 -15.906,13.764c-1.446,0.167 -7.953,0.306 -14.487,0.306l-11.818,0l0,-1.669l3.615,0l0,-45.047l-3.615,0l0,-1.668l11.651,0Zm-24.22,23.135l0.056,-25.081l-0.946,-1.891l-0.945,-1.863l0.973,-1.391c0.529,-0.75 1.029,-1.557 1.14,-1.724c0.39,-0.667 11.346,-2.085 11.707,-1.529c0.083,0.139 0.445,0.584 0.779,1.001l0.639,0.779l10.289,-0.835l10.316,-0.834l0.834,-0.778c0.445,-0.418 0.807,-0.918 0.807,-1.113c0,-0.194 0.889,-0.389 2.586,-0.5c1.39,-0.111 3.142,-0.278 3.893,-0.362l1.306,-0.167l0.028,-1.279c0,-0.695 0.084,-1.724 0.195,-2.28l0.195,-1.029l31.699,10.122l1.752,4.282c0.973,2.364 2.03,5.145 2.364,6.173l0.611,1.891l3.282,-1.974c2.113,-1.251 3.253,-2.113 3.253,-2.419c0,-0.918 -4.338,-19.799 -4.616,-20.021c-0.139,-0.139 -8.314,-2.781 -18.186,-5.895l-17.935,-5.673l-21.55,1.752c-11.846,0.973 -22.329,1.808 -23.274,1.891l-1.752,0.167l0,-1.947c0,-2.196 0.083,-2.308 2.391,-2.308c0.64,0 1.724,-0.083 2.447,-0.166l1.279,-0.195l0,-3.087c0,-10.705 3.949,-20.605 10.233,-25.582c0.946,-0.779 1.669,-1.418 1.613,-1.474c-0.195,-0.194 -4.95,1.752 -7.675,3.115c-1.446,0.723 -3.754,2.085 -5.144,3.031c-3.142,2.141 -7.981,6.784 -10.316,9.899c-4.199,5.617 -7.731,14.682 -8.37,21.578l-0.167,1.724l-7.035,4.81l-7.063,4.839l0,1.307c0,1.168 0.056,1.307 0.834,1.585c0.779,0.25 0.834,0.361 0.668,1.334c-0.139,1.029 -0.028,1.196 4.782,7.286c4.032,5.088 4.839,6.256 4.477,6.451c-0.222,0.139 -0.639,0.806 -0.917,1.502c-0.584,1.557 -0.39,3.031 0.556,4.004l0.695,0.723l0.195,18.714l0.194,18.686l8.37,-0.056l8.37,-0.083l0.083,-25.11Zm30.616,0.779l-1.641,0l0,22.885l3.754,-0.139c3.448,-0.111 3.865,-0.195 5.339,-0.946c3.114,-1.585 4.143,-4.56 3.921,-11.373c-0.112,-3.142 -0.251,-4.198 -0.751,-5.478c-0.668,-1.724 -2.141,-3.281 -3.782,-3.948c-1.196,-0.501 -4.588,-1.001 -6.84,-1.001Zm207.466,-9.454l0,4.588l0.528,-1.14c1.53,-3.393 4.56,-4.922 7.897,-3.977l1.029,0.278l0,11.373l-0.778,0c-0.779,0 -0.807,-0.083 -1.697,-3.281c-1.529,-5.589 -2.78,-6.84 -4.727,-4.644c-1.585,1.808 -1.696,2.781 -1.696,13.82l0,9.955l1.112,0c1.001,0 1.113,0.084 1.113,0.695l0,0.695l-22.246,0l0,-2.002c-0.028,-2.029 -0.028,-2.029 -0.473,-1.195c-0.639,1.223 -2.03,2.614 -3.225,3.225c-3.198,1.669 -6.896,0.918 -8.676,-1.752c-1.39,-2.113 -1.529,-3.364 -1.529,-14.737l0,-10.511l-1.279,0c-1.14,0 -1.252,-0.056 -1.168,-0.612c0.083,-0.639 0.111,-0.639 5.227,-0.639l5.145,0l0.139,12.513c0.167,13.792 0.139,13.764 1.779,13.764c1.252,0 2.225,-0.834 2.837,-2.419c0.445,-1.196 0.5,-2.558 0.611,-11.957l0.084,-10.65l-0.695,0c-0.584,0 -0.723,-0.139 -0.723,-0.695l0,-0.695l9.454,0l0,26.972l4.449,0l0,-25.582l-1.112,0c-1.001,0 -1.113,-0.056 -1.113,-0.695l0,-0.695l9.733,0Zm-59.785,-8.899c-1.001,0 -1.112,-0.055 -1.112,-0.695l0,-0.695l5.089,0.056l5.06,0.083l0.084,5.645l0.056,5.617l0.778,-0.695c2.28,-2.114 6.312,-1.418 9.399,1.668c1.724,1.724 3.559,5.311 4.143,8.064c0.89,4.282 0.306,8.982 -1.529,12.68c-1.057,2.085 -3.532,4.616 -5.339,5.506c-2.336,1.112 -5.701,1.223 -8.064,0.222c-0.584,-0.25 -1.669,-1.001 -2.392,-1.696c-0.75,-0.695 -1.446,-1.279 -1.529,-1.279c-0.083,0 -0.361,0.639 -0.64,1.39c-0.5,1.363 -0.5,1.39 -1.696,1.39l-1.195,0l0,-37.261l-1.113,0Zm-94.348,36.983c4.31,-2.113 7.035,-7.48 7.035,-13.736c-0.028,-7.647 -3.531,-13.264 -9.315,-14.738c-6.257,-1.64 -11.874,1.613 -14.237,8.259c-0.974,2.725 -1.196,7.786 -0.501,10.872c1.279,5.784 5.144,9.761 10.038,10.4c2.42,0.306 4.978,-0.083 6.98,-1.057Zm25.332,0.139c4.532,-2.029 7.369,-7.48 7.369,-14.042c-0.028,-6.34 -2.503,-11.373 -6.73,-13.57c-4.449,-2.335 -9.565,-1.751 -13.097,1.53c-2.864,2.641 -4.365,6.173 -4.643,10.928c-0.501,8.564 3.948,15.321 10.538,16.072c2.447,0.278 4.561,-0.028 6.563,-0.918Zm49.385,-10.01l0.917,2.948c1.613,5.199 3.226,6.784 6.896,6.757c1.085,0 2.253,-0.195 2.642,-0.39c1.919,-0.973 2.753,-2.753 2.252,-4.671c-0.528,-1.891 -1.89,-2.809 -7.146,-4.783c-6.368,-2.391 -8.259,-4.505 -8.286,-9.315c-0.028,-2.197 0.055,-2.698 0.75,-4.088c0.974,-1.974 3.059,-3.893 5.145,-4.699c1.279,-0.529 2.141,-0.64 4.504,-0.64c2.976,-0.028 4.616,0.334 7.341,1.502l1.279,0.528l0,8.12l-1.001,-0.084c-1.001,-0.083 -1.028,-0.083 -1.89,-2.586c-1.558,-4.449 -3.393,-6.256 -6.396,-6.256c-3.643,0 -5.673,3.476 -3.448,5.978c1.057,1.196 1.863,1.641 6.507,3.448c4.087,1.613 5.95,2.864 7.202,4.866c0.778,1.307 0.834,1.53 0.834,4.31c0,2.67 -0.084,3.115 -0.779,4.505c-0.917,1.891 -2.78,3.671 -4.755,4.588c-3.559,1.613 -9.815,1.168 -14.125,-1.029l-1.085,-0.556l0.083,-4.226l0.084,-4.227l2.475,0Zm-32.645,-15.739l1.195,-1.195c2.002,-2.002 4.672,-2.559 7.703,-1.669c1.446,0.417 2.864,1.53 3.531,2.753c0.278,0.501 0.417,0.417 1.613,-0.917c1.057,-1.168 1.613,-1.53 2.864,-1.891c3.003,-0.89 6.535,0.027 8.175,2.113c1.474,1.863 1.613,3.226 1.613,14.932l0,10.65l1.251,0c1.057,0 1.252,0.084 1.252,0.556c0,0.529 -0.195,0.556 -5.979,0.556c-5.784,0 -5.978,-0.027 -5.978,-0.556c0,-0.417 0.194,-0.556 0.695,-0.556l0.695,0l0,-24.498l-0.695,-0.667c-1.168,-1.196 -2.697,-0.751 -3.698,1.057c-0.417,0.806 -0.473,2.085 -0.557,12.346l-0.083,11.456l0.779,0.084c0.556,0.055 0.806,0.25 0.862,0.723l0.083,0.611l-11.178,0l0.083,-0.611c0.056,-0.473 0.306,-0.668 0.862,-0.723l0.779,-0.084l-0.084,-12.012c-0.083,-10.122 -0.139,-12.124 -0.5,-12.652c-0.862,-1.307 -2.503,-1.057 -3.726,0.584c-0.556,0.778 -0.584,1.112 -0.668,12.429l-0.083,11.651l0.64,0.084c0.417,0.055 0.667,0.306 0.722,0.723l0.084,0.611l-12.013,0l0.084,-0.611c0.055,-0.529 0.278,-0.668 1.279,-0.723l1.168,-0.084l0,-25.554l-1.279,0c-1.14,0 -1.252,-0.056 -1.168,-0.612c0.083,-0.639 0.139,-0.639 4.894,-0.723l4.783,-0.055l0,2.474Zm-61.731,24.47l1.195,0.084c0.973,0.055 1.196,0.194 1.252,0.723l0.083,0.611l-12.847,0l0.084,-0.611c0.055,-0.529 0.278,-0.668 1.279,-0.723l1.168,-0.084l0,-35.843l-1.279,0c-1.141,0 -1.252,-0.055 -1.168,-0.611c0.083,-0.64 0.139,-0.64 5.172,-0.723l5.061,-0.056l0,37.233Zm13.375,0.779c-1.196,-0.584 -1.669,-1.835 -2.002,-5.089c-0.39,-3.642 -0.167,-17.435 0.305,-19.353c0.918,-3.782 4.7,-3.587 5.534,0.278c0.473,2.224 0.695,12.986 0.361,17.629c-0.333,4.561 -0.723,5.812 -1.974,6.452c-1.001,0.528 -1.335,0.556 -2.224,0.083Zm111.56,0.083c-0.333,-0.139 -0.834,-0.584 -1.112,-1.029c-0.445,-0.695 -0.5,-1.668 -0.584,-11.261c-0.055,-6.841 0.028,-10.873 0.223,-11.596c0.445,-1.668 1.529,-2.808 2.641,-2.808c2.253,0 2.753,2.391 2.753,13.347c0,9.232 -0.278,11.596 -1.501,12.847c-0.807,0.806 -1.363,0.917 -2.42,0.5Zm-86.062,-0.139c-0.445,-0.25 -0.917,-0.917 -1.251,-1.724c-0.445,-1.223 -0.5,-2.308 -0.5,-11.762c0,-11.262 0.083,-11.985 1.446,-13.069c0.778,-0.612 2.029,-0.723 2.891,-0.278c1.585,0.862 2.03,4.449 1.836,15.349c-0.084,5.061 -0.251,8.537 -0.445,9.176c-0.668,2.169 -2.419,3.17 -3.977,2.308Zm154.968,-11.984c-0.862,-1.113 -1.252,-5.478 -0.89,-10.372c0.278,-3.643 0.723,-4.561 2.224,-4.7c2.002,-0.194 2.531,1.446 2.531,7.953c-0.028,6.257 -0.501,7.842 -2.392,7.842c-0.639,0 -1.056,-0.195 -1.473,-0.723Zm-229.156,-7.898l2.169,0c6.312,0 8.398,-2.586 8.398,-10.399c0,-5.506 -0.862,-8.092 -3.059,-9.316c-1.057,-0.583 -1.696,-0.722 -4.366,-0.806l-3.142,-0.139l0,20.66Zm49.413,-27.945l-1.613,-4.171l-16.239,-5.367l-16.267,-5.367l0,-2.614c0,-1.446 0.083,-2.641 0.194,-2.641c0.139,0 7.425,2.363 16.212,5.283l15.989,5.283l1.751,4.616c1.697,4.477 1.752,4.7 1.669,6.896l-0.084,2.253l-1.612,-4.171Zm-7.314,-23.414c-0.945,-5.172 -3.364,-11.818 -5.895,-16.128c-2.669,-4.532 -7.313,-9.704 -11.039,-12.235c-3.754,-2.53 -7.786,-4.171 -10.622,-4.254c-2.03,-0.083 -2.058,0 -0.084,0.528c6.118,1.669 12.514,6.118 16.768,11.624c4.088,5.311 7.285,12.29 8.648,18.853c0.25,1.223 0.528,2.502 0.584,2.836c0.139,0.556 0.556,0.806 1.557,0.89c0.417,0.027 0.417,-0.167 0.083,-2.114Zm-60.034,-3.309l1.39,-0.166l-0.084,-3.921c-0.166,-7.647 1.474,-14.627 4.728,-20.16c1.223,-2.113 4.755,-5.645 6.395,-6.396c1.446,-0.667 2.364,-0.75 4.561,-0.472c1.306,0.194 1.473,0.305 2.307,1.557c1.168,1.779 2.336,4.56 3.226,7.647c1.418,4.894 2.642,13.152 2.642,17.824l0,2.057l1.612,-0.083l1.585,-0.083l-0.083,-3.059c-0.25,-9.01 -2.28,-18.937 -4.783,-23.469c-0.472,-0.834 -0.834,-1.668 -0.834,-1.863c0,-0.195 0.473,-0.723 1.029,-1.196l1.029,-0.834l-0.834,-0.306l-0.807,-0.306l0.751,-0.556c0.389,-0.306 1.029,-0.778 1.363,-1.057l0.639,-0.528l-0.834,-1.335c-0.695,-1.167 -1.001,-1.418 -2.058,-1.668l-1.251,-0.306l-0.139,-6.368c-0.084,-3.503 -0.111,-6.423 -0.084,-6.479c0.028,-0.055 0.862,0.195 1.808,0.529c1.223,0.445 2.058,0.945 2.725,1.724l0.973,1.084l0.695,-0.723l0.695,-0.751l-1.001,-1.835l-1.028,-1.863l-2.586,-0.778l-2.614,-0.779l-2.475,0.779c-2.364,0.723 -2.53,0.834 -3.949,2.53c-0.834,0.973 -1.501,1.863 -1.501,1.974c0,0.139 0.278,0.556 0.584,0.974c0.5,0.611 0.695,1.696 1.251,6.367c0.362,3.087 0.667,5.756 0.667,5.895c0,0.167 0.334,0.807 0.751,1.446c0.584,0.918 0.946,1.168 1.863,1.363c1.057,0.194 1.001,0.222 -1.084,0.389c-2.364,0.223 -4.588,0.779 -4.588,1.168c0,0.111 0.278,0.222 0.639,0.25c0.417,0 0.25,0.111 -0.5,0.362c-4.783,1.529 -9.316,5.7 -12.152,11.178c-2.53,4.894 -3.726,9.732 -4.032,16.323l-0.167,4.087l1.085,0c0.584,0 1.724,-0.083 2.475,-0.167Zm32.867,-2.613l0.695,0l-0.166,-2.837c-0.557,-8.62 -1.919,-15.154 -4.311,-20.605c-0.695,-1.64 -2.78,-4.866 -3.559,-5.561c-0.806,-0.695 -1.001,-0.195 -0.333,0.806c3.142,4.644 5.338,13.626 5.7,23.469c0.167,4.867 0.222,5.117 0.834,4.894c0.25,-0.083 0.751,-0.166 1.14,-0.166Z"/></svg>