<?xml version="1.0" encoding="UTF-8" standalone="no"?><!DOCTYPE svg PUBLIC "-//W3C//DTD SVG 1.1//EN" "http://www.w3.org/Graphics/SVG/1.1/DTD/svg11.dtd"><svg width="100%" height="100%" viewBox="0 0 532 431" version="1.1" xmlns="http://www.w3.org/2000/svg" xmlns:xlink="http://www.w3.org/1999/xlink" xml:space="preserve" xmlns:serif="http://www.serif.com/" style="fill-rule:evenodd;clip-rule:evenodd;stroke-linejoin:round;stroke-miterlimit:1.41421;"><g><path d="M260.884,0.559c-10.915,2.519 -15.597,13.869 -21.053,22.471c-12.247,19.308 -24.275,38.767 -36.639,58c-51.602,80.266 -100.986,161.979 -152.965,242c-14.166,21.81 -27.794,43.998 -41.662,66c-6.78,10.757 -13.241,22.191 -3.892,33.826c8.056,10.028 22.835,7.174 34.211,7.174l439,0c12.014,0 27.423,2.557 39,-0.789c11.556,-3.34 17.793,-16.072 13.532,-27.211c-9.161,-23.943 -28.973,-47.43 -42.84,-69c-54.975,-85.514 -109.312,-171.6 -162.884,-258c-12.254,-19.762 -24.892,-39.291 -37.232,-59c-5.995,-9.574 -14.055,-18.361 -26.576,-15.471Z" style="fill-rule:nonzero;"/><path d="M264.884,60.03l-50.947,81l-104.106,165l-51.947,83l416,0l-49.576,-79l-109.848,-174l-47.576,-76l-2,0Z" style="fill:#fff;fill-rule:nonzero;"/><path d="M283.884,143.509c-26.487,4.118 -21.204,45.489 5,41.053c26.161,-4.429 21.214,-45.129 -5,-41.053m46,166.521c-6.281,6.224 -15.164,5.769 -20.61,11.279c-10.635,10.761 -17.595,33.784 -23.39,47.721l123,0c-6.972,-24.21 -22.019,-48.2 -32.781,-71c-3.453,-7.316 -6.756,-19.972 -15.223,-22.948c-12.313,-4.326 -15.262,16.648 -22.92,20.954c-2.486,1.398 -5.908,-1.169 -8.077,-2.253c-6.856,-3.428 -18.64,-6.804 -23.41,-12.966c-4.262,-5.504 -4.383,-16.123 -5.8,-22.787c-5.945,-27.96 -7.536,-64.32 -41.789,-72.468c-9.459,-2.249 -33.63,-1.966 -42,3.21c-8.786,5.434 -15.803,15.895 -22.985,23.258c-4.907,5.03 -21.616,13.436 -15.412,21.787c7.29,9.812 29.516,16.019 40.397,21.46l72,36c12.506,6.253 25.558,14.88 39,18.753Z" style="fill-rule:nonzero;"/><path d="M202.884,229.03l0,1c15.68,11.163 22.927,-8.295 30,-21c-13.705,0.038 -20.921,10.921 -30,20m71,5l-17,24l27,13l-10,-37Z" style="fill:#fff;fill-rule:nonzero;"/><path d="M202.884,259.03c-8.03,25.113 -15.009,50.659 -22.291,76c-2.314,8.054 -8.494,21.04 -2.971,28.892c5.028,7.147 14.026,5.266 17.705,-1.896c5.797,-11.285 9.246,-24.211 13.957,-35.996c4.683,-11.718 11.458,-24.561 13.6,-37c7.641,5.319 22.684,15.695 25.022,25c3.122,12.43 3.494,26.273 4.928,39c0.624,5.537 1.182,12.525 7.093,14.987c6.093,2.538 12.149,-1.745 12.848,-7.987c1.65,-14.736 2.039,-39.02 -3.024,-53c-9.782,-27.013 -42.19,-37.726 -66.867,-48Z" style="fill-rule:nonzero;"/></g></svg>